# xmcd CD database file
#
# Track frame offsets:
#	183
#	25523
#	44158
#	65728
#	90825
#	123090
#	140635
#	164978
#	185265
#	202108
#	233083
#	260595
#	285560
#
# Disc length: 3934 seconds
#
# Revision: 3
# Processed by: cddbd v1.4PL0 Copyright (c) Steve Scherf et al.
# Submitted via: CDex 1.40Release
#
DISCID=bf0f5c0d
DTITLE=Various Artist - Cool Struttin' Vol.1
DYEAR=1993
DGENRE=Acid
TTITLE0=D-Swing - If I Knew
TTITLE1=5 A.M. - You Know What I Want
TTITLE2=Quiet Achievers - Choices
TTITLE3=Rhythm Corporation - Conversations
TTITLE4=Boom Tang Boys - Love Trip
TTITLE5=Miriam Bondy - Ten Thousand Miles Away
TTITLE6=Forte and McKenzie - Sensitive
TTITLE7=5 A.M. - Salvation Street
TTITLE8=Sharifa - Sisters
TTITLE9=Supreme Chord Jesters - Music
TTITLE10=Moves In Motion - Thank You For That Funky Vibe
TTITLE11=Step Three - Dream
TTITLE12=Jean-Dominique Nkishi - Today
EXTD=1016 YEAR: 1993 ID3G: 34
EXTT0=
EXTT1=
EXTT2=
EXTT3=
EXTT4=
EXTT5=
EXTT6=
EXTT7=
EXTT8=
EXTT9=
EXTT10=
EXTT11=
EXTT12=
PLAYORDER=
